<svg xmlns="http://www.w3.org/2000/svg" version="1.1" xmlnsXlink="http://www.w3.org/1999/xlink" xmlnsSvgjs="http://svgjs.dev/svgjs" width="1000" height="1125" viewBox="0 0 1000 1125"><g transform="matrix(1,0,0,1,0.0006562499999631655,0)"><svg viewBox="0 0 320 360" data-background-color="#ffffff" preserveAspectRatio="xMidYMid meet" height="1125" width="1000" xmlns="http://www.w3.org/2000/svg" xmlnsXlink="http://www.w3.org/1999/xlink"><g id="tight-bounds" transform="matrix(1,0,0,1,-0.00020999999998139174,0)"><svg viewBox="0 0 320 360" height="360" width="320"><g><svg></svg></g><g><svg viewBox="0 0 320 360" height="360" width="320"><g><path transform="translate(-17.77778,2.22222) scale(3.55556,3.55556)" d="M95 52c0-12.871-5.692-24.431-14.682-32.318-7.887-8.99-19.447-14.682-32.318-14.682-23.71 0-43 19.29-43 43 0 12.868 5.69 24.426 14.677 32.313 7.887 8.993 19.449 14.687 32.323 14.687 0.084 0 0.166-0.006 0.25-0.006 0.084 0 0.166 0.006 0.25 0.006 23.472 0 42.5-19.028 42.5-42.5 0-0.084-0.006-0.166-0.006-0.25 0-0.084 0.006-0.166 0.006-0.25zM21.828 73.371c-4.245-5.978-6.77-13.259-6.822-21.121 0.135-20.511 16.732-37.109 37.244-37.244 7.862 0.052 15.144 2.577 21.121 6.822 6.853 6.645 11.129 15.93 11.129 26.172 0 20.126-16.374 36.5-36.5 36.5-10.242 0-19.527-4.276-26.172-11.129zM6 48c0-23.159 18.841-42 42-42 9.858 0 18.926 3.422 26.1 9.13-6.463-3.888-14.024-6.13-22.1-6.13-23.71 0-43 19.29-43 43 0 8.074 2.241 15.633 6.127 22.095-5.706-7.172-9.127-16.239-9.127-26.095zM52 89c-10.08 0-19.227-4.055-25.905-10.615 6.174 4.469 13.743 7.115 21.905 7.115 20.678 0 37.5-16.822 37.5-37.5 0-8.162-2.646-15.731-7.115-21.905 6.56 6.678 10.615 15.825 10.615 25.905 0 20.402-16.598 37-37 37z" fill="#a27ce0" fill-rule="nonzero" stroke="none" stroke-width="1" stroke-linecap="butt" stroke-linejoin="miter" stroke-miterlimit="10" stroke-dasharray="" stroke-dashoffset="0" font-family="none" font-weight="none" font-size="none" text-anchor="none" style="mix-blend-mode: normal" data-fill-palette-color="tertiary"></path></g><g transform="matrix(1,0,0,1,129.93439983594536,99)"><svg viewBox="0 0 60.131200328109294 162" height="162" width="60.131200328109294"><g><svg viewBox="0 0 60.131200328109294 162" height="162" width="60.131200328109294"><g><svg viewBox="0 0 132.30727762803235 356.450209854229" height="162" width="60.131200328109294"><g transform="matrix(1,0,0,1,0,194.45020985422903)"><svg viewBox="0 0 132.30727762803235 162" height="162" width="132.30727762803235"><g id="textblocktransform"><svg viewBox="0 0 132.30727762803235 162" height="162" width="132.30727762803235" id="textblock"><g><svg viewBox="0 0 132.30727762803235 162" height="162" width="132.30727762803235"><g transform="matrix(1,0,0,1,0,0)"><svg width="132.30727762803235" viewBox="0.76 -35.84 29.59 36.230000000000004" height="162" data-palette-color="#f1edd7"><path d="M0.76-34.69L1.05-35.25Q4.61-35.57 7.96-35.71 11.3-35.84 14.58-35.84L14.58-35.84Q17.85-35.84 21.68-35.68 25.51-35.52 30.05-35.21L30.05-35.21 30.35-34.69 28.05-28.76 27.25-29Q27.42-29.86 27.5-30.6 27.59-31.35 27.59-32.01L27.59-32.01Q27.59-32.91 27.44-33.64L27.44-33.64Q24.34-33.84 21.86-33.94 19.38-34.03 17.46-34.06L17.46-34.06 17.46-4.39Q17.46-3.39 17.64-2.69 17.82-1.98 18.26-1.49 18.7-1 19.43-0.7 20.17-0.39 21.29-0.2L21.29-0.2 21.09 0.39Q19.63 0.2 18.55 0.1 17.48 0 16.75 0L16.75 0Q16.06 0 15.22 0.1 14.38 0.2 13.35 0.39L13.35 0.39 13.21 0.15Q13.7-0.56 13.7-2.44L13.7-2.44 13.7-34.06Q11.84-34.03 9.35-33.94 6.86-33.84 3.66-33.64L3.66-33.64Q3.52-32.84 3.52-31.93L3.52-31.93Q3.52-30.64 3.86-29L3.86-29 3.05-28.76 0.76-34.69Z" opacity="1" transform="matrix(1,0,0,1,0,0)" fill="#f1edd7" class="wordmark-text-0" data-fill-palette-color="primary" id="text-0"></path></svg></g></svg></g></svg></g></svg></g><g transform="matrix(1,0,0,1,25.270690026954178,0)"><svg viewBox="0 0 81.765897574124 156.20589785422902" height="156.20589785422902" width="81.765897574124"><g><svg xmlns="http://www.w3.org/2000/svg" xmlnsXlink="http://www.w3.org/1999/xlink" version="1.1" x="0" y="0" viewBox="19.682354658322133 3.5 35.57297155366782 67.95874717630606" enable-background="new 0 0 75 75" xmlSpace="preserve" height="156.20589785422902" width="81.765897574124" class="icon-icon-0" data-fill-palette-color="accent" id="icon-0"><path d="M21.2 59.5c-1.1-2.6-4.2-12.2 3.8-24.7C36 18 31.7 3.5 31.7 3.5S46 8.8 41.7 37.5c-1 6.5-0.9 9 2 9.4 5 0.7 3.1-19.7 3.1-19.7s3.9 2 6.8 12.1c1.5 5.3 1.8 9.5 1.6 12.5-1 18.1-16.5 19.6-16.5 19.6S26.9 73 21.2 59.5z" fill="#fb806f" data-fill-palette-color="accent"></path></svg></g></svg></g><g></g></svg></g></svg></g></svg></g></svg></g><defs></defs></svg><rect width="320" height="360" fill="none" stroke="none" visibility="hidden"></rect></g></svg></g></svg>